<?xml version="1.0" encoding="UTF-8"?>
<svg id="Layer_1" xmlns="http://www.w3.org/2000/svg" version="1.1" viewBox="0 0 1080 1080">
  <!-- Generator: Adobe Illustrator 30.3.0, SVG Export Plug-In . SVG Version: 2.1.3 Build 182)  -->
  <defs>
    <style>
      .st0, .st1 {
        fill: none;
      }

      .st1 {
        stroke: #000;
        stroke-miterlimit: 10;
        stroke-width: 39.7px;
      }
    </style>
  </defs>
  <g>
    <polygon class="st0" points="334.7 397.8 300.5 417.6 300.4 417.6 232 378.1 232 378.1 266.2 358.3 300.5 378.1 334.7 397.8"/>
    <polygon class="st0" points="403.1 437.3 368.9 457.1 368.8 457.2 300.5 417.7 300.5 417.6 334.7 397.8 368.9 417.6 403.1 437.3"/>
    <polygon class="st0" points="471.6 476.9 437.3 496.6 437.2 496.7 368.9 457.2 368.9 457.1 403.1 437.3 437.3 457.1 471.6 476.9"/>
    <polygon class="st0" points="540 516.4 505.8 536.1 505.6 536.2 437.3 496.8 437.3 496.6 471.6 476.9 540 516.4"/>
    <polygon points="471.6 397.8 437.3 417.6 403.1 437.3 368.9 417.6 334.7 397.8 368.9 378.1 403.1 358.3 471.6 397.8"/>
    <polygon class="st0" points="676.9 358.3 642.7 378.1 608.4 397.8 574.2 378.1 540 358.3 574.2 338.6 608.4 318.8 642.7 338.6 676.9 358.3"/>
    <polygon points="676.9 279.3 642.7 299.1 608.4 318.8 540 279.3 574.2 259.5 608.4 239.8 608.4 239.8 642.7 259.5 676.9 279.3"/>
    <polygon class="st0" points="813.8 279.3 779.5 299.1 745.3 318.8 676.9 279.3 711.1 259.5 745.3 239.8 779.5 259.5 813.8 279.3"/>
    <polygon class="st0" points="813.8 358.3 779.5 378.1 745.3 397.8 711.1 378.1 676.9 358.3 711.1 338.6 745.3 318.8 779.5 338.6 813.8 358.3"/>
    <polygon class="st0" points="745.3 397.8 711.1 417.6 676.9 437.3 608.4 397.8 642.7 378.1 676.9 358.3 711.1 378.1 745.3 397.8"/>
    <polygon class="st0" points="676.9 437.3 642.7 457.1 608.4 476.9 574.2 457.1 540 437.3 574.2 417.6 608.4 397.8 676.9 437.3"/>
    <polygon points="608.4 476.9 540 516.4 471.6 476.9 505.8 457.1 540 437.3 574.2 457.1 608.4 476.9"/>
    <polygon points="916.4 536.1 916.4 615.2 882.2 634.9 848 654.7 848 575.6 882.2 555.9 916.4 536.1"/>
    <polygon class="st0" points="848 733.7 848 812.7 813.8 832.5 779.5 852.2 779.5 773.2 813.8 753.5 848 733.7"/>
    <polygon class="st0" points="368.9 733.7 368.9 812.7 334.7 793 300.5 773.2 300.5 694.2 334.7 713.9 368.9 733.7"/>
    <polygon class="st0" points="779.5 773.2 779.5 852.2 745.3 872 711.1 891.7 711.1 812.7 745.3 793 779.5 773.2"/>
    <polygon points="608.4 318.8 574.2 338.6 540 358.3 471.6 318.8 540 279.3 608.4 318.8"/>
    <polygon class="st0" points="848 496.6 848 575.6 779.5 615.2 779.5 536.1 813.8 516.4 848 496.6"/>
    <polygon points="916.4 457.1 916.4 536.1 882.2 555.9 848 575.6 848 496.6 882.2 476.9 916.4 457.1"/>
    <polygon class="st0" points="745.3 318.8 711.1 338.6 676.9 358.3 642.7 338.6 608.4 318.8 642.7 299.1 676.9 279.3 745.3 318.8"/>
    <polygon class="st0" points="471.6 318.8 437.3 338.6 403.1 358.3 368.9 338.6 334.7 318.8 368.9 299 403.1 279.3 437.3 299.1 471.6 318.8"/>
    <polygon points="540 358.3 505.8 378.1 471.6 397.8 403.1 358.3 437.3 338.6 471.6 318.8 540 358.3"/>
    <polygon class="st0" points="608.4 397.8 574.2 417.6 540 437.3 505.8 417.6 471.6 397.8 505.8 378.1 540 358.3 574.2 378.1 608.4 397.8"/>
    <polygon class="st0" points="711 457.1 642.7 496.5 642.5 496.5 608.4 476.9 642.7 457.1 676.9 437.3 711 457.1"/>
    <polygon class="st0" points="916.4 338.6 848 378 847.9 378.1 813.8 358.3 882.2 318.8 916.4 338.6"/>
    <polygon class="st0" points="847.9 378.1 779.5 417.5 779.5 417.6 745.3 397.8 779.5 378.1 813.8 358.3 847.9 378.1"/>
    <polygon class="st0" points="848 378.1 848 417.6 813.8 437.3 779.5 457.1 779.5 417.5 847.9 378.1 848 378.1"/>
    <polygon class="st0" points="779.5 417.6 711.1 457 711 457.1 676.9 437.3 711.1 417.6 745.3 397.8 779.5 417.6"/>
    <polygon class="st0" points="779.5 417.6 779.5 457.1 745.3 476.9 711.1 496.6 711.1 457 779.5 417.6 779.5 417.6"/>
    <polygon class="st0" points="711.1 457.1 711.1 496.6 676.9 516.4 642.7 536.1 642.7 496.5 711 457.1 711.1 457.1"/>
    <polygon class="st0" points="642.7 496.6 642.7 536.1 608.4 555.9 574.2 575.6 574.2 535.9 642.5 496.5 642.7 496.6"/>
    <polygon class="st0" points="779.5 536.1 779.5 615.2 745.3 634.9 711.1 654.7 711.1 575.6 745.3 555.9 779.5 536.1"/>
    <polygon points="471.6 239.8 437.3 259.5 403.1 279.3 368.9 259.5 334.7 239.8 368.9 220 403.1 200.3 437.3 220 471.6 239.8"/>
    <polygon class="st0" points="505.8 733.7 505.8 812.7 471.6 793 437.3 773.2 437.3 694.2 471.6 713.9 505.8 733.7"/>
    <polygon points="539.6 674.2 539.6 753.2 505.8 733.7 505.8 654.7 539.6 674.2"/>
    <polygon points="539.6 753.2 539.6 832.3 505.8 812.7 505.8 733.7 539.6 753.2"/>
    <polygon points="574.2 891.7 574.2 970.8 540 990.5 539.6 990.3 539.6 911.7 540 911.5 574.2 891.7"/>
    <polygon points="916.4 694.2 916.4 773.2 882.2 793 848 812.7 848 733.7 882.2 713.9 916.4 694.2"/>
    <polygon class="st0" points="711.1 812.7 711.1 891.7 676.9 911.5 642.7 931.3 642.7 852.2 676.9 832.5 711.1 812.7"/>
    <polygon points="539.6 911.3 539.6 990.3 505.8 970.8 505.8 891.7 539.6 911.3"/>
    <polygon class="st0" points="642.7 852.2 642.7 931.3 608.4 951 574.2 970.8 574.2 891.7 608.4 872 642.7 852.2"/>
    <polygon class="st0" points="505.8 891.7 505.8 970.8 471.6 951 437.3 931.3 437.3 852.2 471.6 872 505.8 891.7"/>
    <polygon points="574.2 812.7 574.2 891.7 540 911.5 539.6 911.3 539.6 832.7 540 832.5 574.2 812.7"/>
    <polygon class="st0" points="642.7 773.2 642.7 852.2 608.4 872 574.2 891.7 574.2 812.7 608.4 793 642.7 773.2"/>
    <polygon class="st0" points="711.1 733.7 711.1 812.7 676.9 832.5 642.7 852.2 642.7 773.2 676.9 753.5 711.1 733.7"/>
    <polygon class="st0" points="779.5 694.2 779.5 773.2 745.3 793 711.1 812.7 711.1 733.7 745.3 713.9 779.5 694.2"/>
    <polygon class="st0" points="848 654.7 848 733.7 813.8 753.5 779.5 773.2 779.5 694.2 813.8 674.4 813.8 674.4 848 654.7"/>
    <polygon points="916.4 615.2 916.4 694.2 882.2 713.9 848 733.7 848 654.7 882.2 634.9 916.4 615.2"/>
    <polygon class="st0" points="711.1 575.6 711.1 654.7 676.9 674.4 642.7 694.2 642.7 615.2 676.9 595.4 711.1 575.6"/>
    <polygon class="st0" points="642.7 615.2 642.7 694.2 608.4 713.9 574.2 733.7 574.2 654.7 608.4 634.9 642.7 615.2"/>
    <polygon class="st0" points="505.8 654.7 505.8 733.7 471.6 713.9 437.3 694.2 437.3 615.2 471.6 634.9 505.8 654.7"/>
    <polygon points="437.3 852.2 437.3 931.3 403.1 911.5 368.9 891.7 368.9 812.7 403.1 832.5 437.3 852.2"/>
    <polygon class="st0" points="505.8 812.7 505.8 891.7 471.6 872 437.3 852.2 437.3 773.2 471.6 793 505.8 812.7"/>
    <polygon points="642.7 694.2 642.7 773.2 608.4 793 574.2 812.7 574.2 733.7 608.4 713.9 642.7 694.2"/>
    <polygon points="574.2 733.7 574.2 812.7 540 832.5 539.6 832.3 539.6 753.7 540 753.5 574.2 733.7"/>
    <polygon points="539.6 832.3 539.6 911.3 505.8 891.7 505.8 812.7 539.6 832.3"/>
    <polygon points="711.1 654.7 711.1 733.7 676.9 753.5 642.7 773.2 642.7 694.2 676.9 674.4 711.1 654.7"/>
    <polygon points="779.5 615.2 779.5 694.2 745.3 713.9 711.1 733.7 711.1 654.7 745.3 634.9 779.5 615.2"/>
    <polygon points="848 575.6 848 654.7 813.8 674.4 813.8 674.4 779.5 694.2 779.5 615.2 848 575.6"/>
    <polygon points="437.3 773.2 437.3 852.2 403.1 832.5 368.9 812.7 368.9 733.7 403.1 753.5 437.3 773.2"/>
    <polygon points="574.2 654.7 574.2 733.7 540 753.5 539.6 753.2 539.6 674.6 540 674.4 574.2 654.7"/>
    <polygon points="642.7 536.1 642.7 615.2 608.4 634.9 574.2 654.7 574.2 575.6 608.4 555.9 642.7 536.1"/>
    <polygon class="st0" points="300.5 773.2 300.5 852.2 266.2 832.5 232 812.7 232 733.7 266.2 753.5 300.5 773.2"/>
    <polygon class="st0" points="368.9 812.7 368.9 891.7 334.7 872 300.5 852.2 300.5 773.2 334.7 793 368.9 812.7"/>
    <polygon points="711.1 496.6 711.1 575.6 676.9 595.4 642.7 615.2 642.7 536.1 676.9 516.4 711.1 496.6"/>
    <polygon points="779.5 457.1 779.5 536.1 745.3 555.9 711.1 575.6 711.1 496.6 745.3 476.9 779.5 457.1"/>
    <polygon points="848 417.6 848 496.6 813.8 516.4 779.5 536.1 779.5 457.1 813.8 437.3 848 417.6"/>
    <polygon class="st0" points="916.4 338.6 916.4 378.1 882.2 397.8 848 417.6 848 378 916.4 338.6"/>
    <polygon points="437.3 615.2 437.3 694.2 403.1 674.4 368.9 654.7 368.9 575.6 403.1 595.4 437.3 615.2"/>
    <polygon points="232 733.7 232 812.7 197.8 793 163.6 773.2 163.6 694.2 197.8 713.9 232 733.7"/>
    <polygon class="st0" points="882.2 318.8 813.8 358.3 779.5 338.6 745.3 318.8 779.5 299.1 813.8 279.3 848 299.1 882.2 318.8"/>
    <polygon class="st0" points="368.9 575.6 368.9 654.7 334.7 634.9 300.5 615.2 300.5 536.1 334.7 555.9 368.9 575.6"/>
    <polygon points="540 437.3 505.8 457.1 471.6 476.9 437.3 457.1 403.1 437.3 437.3 417.6 471.6 397.8 505.8 417.6 540 437.3"/>
    <polygon points="232 575.6 232 654.7 197.8 634.9 163.6 615.2 163.6 536.1 197.8 555.9 197.8 555.9 232 575.6"/>
    <polygon points="232 654.7 232 733.7 197.8 713.9 163.6 694.2 163.6 615.2 197.8 634.9 232 654.7"/>
    <polygon class="st0" points="300.5 694.2 300.5 773.2 266.2 753.5 232 733.7 232 654.7 266.2 674.4 300.5 694.2"/>
    <polygon points="403.1 358.3 368.9 378.1 334.7 397.8 300.5 378.1 266.2 358.3 300.5 338.6 334.7 318.8 368.9 338.6 403.1 358.3"/>
    <polygon class="st0" points="300.5 615.2 300.5 694.2 266.2 674.4 232 654.7 232 575.6 266.2 595.4 300.5 615.2"/>
    <polygon points="368.9 654.7 368.9 733.7 334.7 713.9 300.5 694.2 300.5 615.2 334.7 634.9 368.9 654.7"/>
    <polygon points="745.3 239.8 711.1 259.5 676.9 279.3 642.7 259.5 608.4 239.8 642.7 220 676.9 200.3 711.1 220 745.3 239.8"/>
    <polygon class="st0" points="540 279.3 471.6 318.8 437.3 299.1 403.1 279.3 437.3 259.5 471.6 239.8 505.8 259.5 540 279.3"/>
    <polygon points="608.4 160.8 574.2 180.5 540 200.3 505.8 180.5 471.6 160.8 540 121.2 608.4 160.8"/>
    <polygon points="403.1 279.3 368.9 299 334.7 318.8 300.5 299.1 266.2 279.3 300.5 259.5 334.7 239.8 334.7 239.8 368.9 259.5 403.1 279.3"/>
    <polygon points="334.7 318.8 300.5 338.6 266.2 358.3 232 338.6 197.8 318.8 266.2 279.3 300.5 299.1 334.7 318.8"/>
    <polygon class="st0" points="266.2 358.3 232 378.1 232 378.1 163.6 338.6 197.8 318.8 232 338.6 266.2 358.3"/>
    <polygon class="st0" points="505.8 536.3 505.8 575.6 471.6 555.9 437.3 536.1 437.3 496.8 505.6 536.2 505.8 536.3"/>
    <polygon class="st0" points="437.3 496.8 437.3 536.1 403.1 516.4 368.9 496.6 368.9 457.2 437.2 496.7 437.3 496.8"/>
    <polygon class="st0" points="368.9 457.2 368.9 496.6 300.5 457.1 300.5 417.7 368.8 457.2 368.9 457.2"/>
    <polygon class="st0" points="300.5 417.7 300.5 457.1 266.2 437.3 232 417.6 232 378.1 300.4 417.6 300.5 417.7"/>
    <polygon class="st0" points="232 378.1 232 417.6 197.8 397.8 163.6 378.1 163.6 338.6 232 378.1 232 378.1"/>
    <polygon points="232 417.6 232 496.6 197.8 476.9 163.6 457.1 163.6 378.1 197.8 397.8 232 417.6"/>
    <polygon class="st0" points="300.5 457.1 300.5 536.1 266.2 516.4 232 496.6 232 417.6 266.2 437.3 300.5 457.1"/>
    <polygon class="st0" points="368.9 496.6 368.9 575.6 334.7 555.9 300.5 536.1 300.5 457.1 368.9 496.6"/>
    <polygon points="437.3 536.1 437.3 615.2 403.1 595.4 368.9 575.6 368.9 496.6 403.1 516.4 437.3 536.1"/>
    <polygon class="st0" points="505.8 575.6 505.8 654.7 471.6 634.9 437.3 615.2 437.3 536.1 471.6 555.9 505.8 575.6"/>
    <polygon points="300.5 536.1 300.5 615.2 266.2 595.4 232 575.6 232 496.6 266.2 516.4 300.5 536.1"/>
    <polygon points="232 496.6 232 575.6 197.8 555.9 197.8 555.9 163.6 536.1 163.6 457.1 197.8 476.9 232 496.6"/>
    <polygon points="676.9 200.3 642.7 220 608.4 239.8 608.4 239.8 574.2 220 540 200.3 574.2 180.5 608.4 160.8 642.7 180.5 676.9 200.3"/>
    <polygon class="st0" points="608.4 239.8 574.2 259.5 540 279.3 505.8 259.5 471.6 239.8 505.8 220 540 200.3 574.2 220 608.4 239.8"/>
    <polygon points="540 200.3 505.8 220 471.6 239.8 437.3 220 403.1 200.3 437.3 180.5 471.6 160.8 505.8 180.5 540 200.3"/>
    <polygon class="st0" points="642.5 496.5 574.2 535.9 574.1 536 540 516.4 608.4 476.9 642.5 496.5"/>
    <polygon class="st0" points="539.6 555.9 539.6 595.2 505.8 575.6 505.8 536.3 539.6 555.9"/>
    <polygon class="st0" points="574.1 536 539.6 555.9 505.8 536.3 505.8 536.1 540 516.4 574.1 536"/>
    <polygon class="st0" points="574.2 536.1 574.2 575.6 540 595.4 539.6 595.2 539.6 595.2 539.6 595.2 539.6 555.9 574.1 536 574.2 536.1"/>
  </g>
  <polygon class="st1" points="539.6 39 109.2 287.5 109.2 784.5 539.6 1033 970 784.5 970 287.5 539.6 39"/>
</svg>