<?xml version="1.0" encoding="UTF-8"?>
<svg id="Layer_1" xmlns="http://www.w3.org/2000/svg" version="1.1" viewBox="0 0 30 30">
  <!-- Generator: Adobe Illustrator 29.8.2, SVG Export Plug-In . SVG Version: 2.1.1 Build 3)  -->
  <defs>
    <style>
      .st0 {
        fill: #012226;
      }
    </style>
  </defs>
  <path class="st0" d="M28,8.8L19.9.6c0,0-.2-.1-.3-.1h-9.2c-2.1,0-3.9,1.7-3.9,3.9v7.7h-3.4c-.7,0-1.2.5-1.2,1.2v6.9c0,.7.5,1.2,1.2,1.2h3.4s0,3.3,0,3.3c0,2.1,1.7,3.9,3.9,3.9h13.9c2.1,0,3.9-1.7,3.9-3.9v-15.6c0-.1,0-.2-.1-.3h0ZM20,2l6.6,6.6h-6.2c-.2,0-.4-.2-.4-.4V2ZM2.7,20.2v-6.9c0-.2.1-.3.3-.3h18.8c.2,0,.3.1.3.3v6.9c0,.2-.1.3-.3.3H3c-.2,0-.3-.1-.3-.3h0ZM24.3,27.8h-13.9c-1.7,0-3-1.4-3-3v-3.3h14.5c.7,0,1.2-.5,1.2-1.2v-6.9c0-.7-.5-1.2-1.2-1.2H7.3s0-7.7,0-7.7c0-1.7,1.4-3,3-3h8.8v6.8c0,.7.6,1.3,1.3,1.3h6.8v15.2c0,1.7-1.4,3-3,3h0ZM7.6,14h-1.4c-.2,0-.4.2-.4.4v4.7c0,.2.2.4.4.4s.4-.2.4-.4v-1.4h1c1,0,1.9-.8,1.9-1.9h0c0-1.1-.8-1.9-1.9-1.9h0ZM8.6,15.9c0,.5-.4,1-1,1h-1v-2h1c.5,0,1,.4,1,1h0ZM12.4,14h-1.4c-.2,0-.4.2-.4.4v4.7c0,.2.2.4.4.4h1.4c1,0,1.9-.8,1.9-1.9v-1.9c0-1-.8-1.9-1.9-1.9h0ZM13.4,17.7c0,.5-.4,1-1,1h-1v-3.8h1c.5,0,1,.4,1,1v1.9ZM19.1,14.4c0,.2-.2.4-.4.4h-2.4v1.2h2c.2,0,.4.2.4.4s-.2.4-.4.4h-2v2.2c0,.2-.2.4-.4.4s-.4-.2-.4-.4v-4.7c0-.2.2-.4.4-.4h2.8c.2,0,.4.2.4.4h0Z"/>
</svg>