<?xml version="1.0" encoding="UTF-8"?>
<svg id="Layer_1" xmlns="http://www.w3.org/2000/svg" version="1.1" viewBox="0 0 100 100">
  <!-- Generator: Adobe Illustrator 30.3.0, SVG Export Plug-In . SVG Version: 2.1.3 Build 182)  -->
  <defs>
    <style>
      .st0 {
        fill: #373557;
      }
    </style>
  </defs>
  <path class="st0" d="M48.9,42.4c0-11.3-9.1-20.4-20.4-20.4s-19.5,8.8-20.4,20.1c-1.5,17.1,11.6,31.5,27.4,36.1-5.4-3.3-9.1-8.9-9.8-15.5.9.1,1.9.2,2.8.2,11.3,0,20.4-9.1,20.4-20.4Z"/>
  <path class="st0" d="M92,42.4c0-11.3-9.1-20.4-20.4-20.4s-19.5,8.8-20.4,20.1c-1.5,17.1,11.6,31.5,27.4,36.1-5.4-3.3-9.1-8.9-9.8-15.5.9.1,1.9.2,2.8.2,11.3,0,20.4-9.1,20.4-20.4Z"/>
</svg>