<?xml version="1.0" encoding="UTF-8"?>
<svg id="Layer_1" xmlns="http://www.w3.org/2000/svg" version="1.1" viewBox="0 0 1080 1080">
  <!-- Generator: Adobe Illustrator 30.3.0, SVG Export Plug-In . SVG Version: 2.1.3 Build 182)  -->
  <defs>
    <style>
      .st0 {
        fill: none;
      }
    </style>
  </defs>
  <polygon class="st0" points="312.8 384.1 274.9 406 274.9 406 199.2 362.3 199.2 362.2 237.1 340.4 274.9 362.3 312.8 384.1"/>
  <polygon class="st0" points="388.5 427.8 350.7 449.7 350.6 449.8 274.9 406.1 274.9 406 312.8 384.1 350.7 406 388.5 427.8"/>
  <polygon class="st0" points="464.3 471.6 426.4 493.4 426.2 493.5 350.7 449.8 350.7 449.7 388.5 427.8 426.4 449.7 464.3 471.6"/>
  <polygon class="st0" points="540 515.3 502.1 537.1 501.9 537.2 426.4 493.6 426.4 493.4 464.3 471.6 540 515.3"/>
  <polygon class="st0" points="464.3 384.1 426.4 406 388.5 427.8 350.7 406 312.8 384.1 350.7 362.3 388.5 340.4 464.3 384.1"/>
  <polygon class="st0" points="691.4 340.4 653.6 362.3 615.7 384.1 577.9 362.2 540 340.4 577.9 318.5 615.7 296.7 653.6 318.5 691.4 340.4"/>
  <polygon points="691.4 253 653.6 274.8 615.7 296.7 540 253 577.9 231.1 615.7 209.2 615.7 209.2 653.6 231.1 691.4 253"/>
  <polygon points="842.9 253 805 274.8 767.2 296.7 691.4 253 729.3 231.1 767.2 209.2 805 231.1 842.9 253"/>
  <polygon points="842.9 340.4 805 362.2 767.2 384.1 729.3 362.3 691.4 340.4 729.3 318.5 767.2 296.7 805 318.5 842.9 340.4"/>
  <polygon points="767.2 384.1 729.3 406 691.4 427.8 615.7 384.1 653.6 362.3 691.4 340.4 729.3 362.3 767.2 384.1"/>
  <polygon points="691.4 427.8 653.6 449.7 615.7 471.6 577.9 449.7 540 427.8 577.9 406 615.7 384.1 691.4 427.8"/>
  <polygon points="615.7 471.6 540 515.3 464.3 471.6 502.1 449.7 540 427.8 577.9 449.7 615.7 471.6"/>
  <polygon class="st0" points="956.5 537.1 956.5 624.6 918.6 646.5 880.8 668.3 880.8 580.9 918.6 559 956.5 537.1"/>
  <polygon class="st0" points="880.8 755.8 880.8 843.2 842.9 865.1 805 886.9 805 799.5 842.9 777.6 880.8 755.8"/>
  <polygon class="st0" points="350.7 755.8 350.7 843.2 312.8 821.3 274.9 799.5 274.9 712 312.8 733.9 350.7 755.8"/>
  <polygon class="st0" points="805 799.5 805 886.9 767.2 908.8 729.3 930.6 729.3 843.2 767.2 821.3 805 799.5"/>
  <polygon points="615.7 296.7 577.9 318.5 540 340.4 464.3 296.7 540 253 615.7 296.7"/>
  <polygon class="st0" points="956.5 449.7 956.5 537.1 918.6 559 880.8 580.9 880.8 493.4 918.6 471.6 956.5 449.7"/>
  <polygon class="st0" points="767.2 296.7 729.3 318.5 691.4 340.4 653.6 318.5 615.7 296.7 653.6 274.8 691.4 253 767.2 296.7"/>
  <polygon class="st0" points="464.3 296.7 426.4 318.5 388.5 340.4 350.7 318.5 312.8 296.7 350.7 274.8 388.5 253 426.4 274.8 464.3 296.7"/>
  <polygon points="540 340.4 502.1 362.2 464.3 384.1 388.5 340.4 426.4 318.5 464.3 296.7 540 340.4"/>
  <polygon class="st0" points="615.7 384.1 577.9 406 540 427.8 502.1 406 464.3 384.1 502.1 362.2 540 340.4 577.9 362.2 615.7 384.1"/>
  <polygon class="st0" points="729.2 449.6 653.6 493.2 653.4 493.3 615.7 471.6 653.6 449.7 691.4 427.8 729.2 449.6"/>
  <polygon class="st0" points="956.5 318.5 880.8 362.2 880.7 362.2 842.9 340.4 918.6 296.7 956.5 318.5"/>
  <polygon class="st0" points="880.7 362.2 805 405.9 805 405.9 767.2 384.1 805 362.2 842.9 340.4 880.7 362.2"/>
  <polygon class="st0" points="880.8 362.2 880.8 406 842.9 427.8 805 449.7 805 405.9 880.7 362.2 880.8 362.2"/>
  <polygon class="st0" points="805 405.9 729.3 449.6 729.2 449.6 691.4 427.8 729.3 406 767.2 384.1 805 405.9"/>
  <polygon class="st0" points="805 406 805 449.7 767.2 471.6 729.3 493.4 729.3 449.6 805 405.9 805 406"/>
  <polygon class="st0" points="729.3 449.7 729.3 493.4 691.4 515.3 653.6 537.1 653.6 493.2 729.2 449.6 729.3 449.7"/>
  <polygon class="st0" points="653.6 493.4 653.6 537.1 615.7 559 577.9 580.9 577.9 536.9 653.4 493.3 653.6 493.4"/>
  <polygon points="880.8 493.4 880.8 580.9 805 624.6 805 537.1 842.9 515.3 880.8 493.4"/>
  <polygon class="st0" points="805 537.1 805 624.6 767.2 646.5 729.3 668.3 729.3 580.9 767.2 559 805 537.1"/>
  <polygon points="464.3 209.2 426.4 231.1 388.5 253 350.7 231.1 312.8 209.2 350.7 187.4 388.5 165.5 426.4 187.4 464.3 209.2"/>
  <polygon class="st0" points="502.1 755.8 502.1 843.2 464.3 821.3 426.4 799.5 426.4 712 464.3 733.9 502.1 755.8"/>
  <polygon points="539.6 689.9 539.6 777.4 502.1 755.8 502.1 668.3 539.6 689.9"/>
  <polygon points="539.6 777.4 539.6 864.8 502.1 843.2 502.1 755.8 539.6 777.4"/>
  <polygon points="577.9 930.6 577.9 1018.1 540 1040 539.6 1039.7 539.6 952.7 540 952.5 577.9 930.6"/>
  <polygon class="st0" points="956.5 712 956.5 799.5 918.6 821.3 880.8 843.2 880.8 755.8 918.6 733.9 956.5 712"/>
  <polygon class="st0" points="729.3 843.2 729.3 930.6 691.4 952.5 653.6 974.4 653.6 886.9 691.4 865.1 729.3 843.2"/>
  <polygon points="539.6 952.3 539.6 1039.7 502.1 1018.1 502.1 930.6 539.6 952.3"/>
  <polygon class="st0" points="653.6 886.9 653.6 974.4 615.7 996.2 577.9 1018.1 577.9 930.6 653.6 886.9"/>
  <polygon class="st0" points="502.1 930.6 502.1 1018.1 464.3 996.2 426.4 974.4 426.4 886.9 464.3 908.8 502.1 930.6"/>
  <polygon points="577.9 843.2 577.9 930.6 540 952.5 539.6 952.3 539.6 865.3 540 865.1 577.9 843.2"/>
  <polygon class="st0" points="653.6 799.5 653.6 886.9 577.9 930.6 577.9 843.2 615.7 821.3 653.6 799.5"/>
  <polygon class="st0" points="729.3 755.8 729.3 843.2 691.4 865.1 653.6 886.9 653.6 799.5 691.4 777.6 729.3 755.8"/>
  <polygon class="st0" points="805 712 805 799.5 767.2 821.3 729.3 843.2 729.3 755.8 767.2 733.9 805 712"/>
  <polygon class="st0" points="880.8 668.3 880.8 755.8 842.9 777.6 805 799.5 805 712 842.9 690.2 842.9 690.2 880.8 668.3"/>
  <polygon class="st0" points="956.5 624.6 956.5 712 918.6 733.9 880.8 755.8 880.8 668.3 918.6 646.5 956.5 624.6"/>
  <polygon class="st0" points="729.3 580.9 729.3 668.3 691.4 690.2 653.6 712 653.6 624.6 691.4 602.7 729.3 580.9"/>
  <polygon class="st0" points="653.6 624.6 653.6 712 615.7 733.9 577.9 755.8 577.9 668.3 615.7 646.5 653.6 624.6"/>
  <polygon class="st0" points="502.1 668.3 502.1 755.8 464.3 733.9 426.4 712 426.4 624.6 464.3 646.5 502.1 668.3"/>
  <polygon class="st0" points="426.4 886.9 426.4 974.4 388.5 952.5 350.7 930.6 350.7 843.2 388.5 865.1 426.4 886.9"/>
  <polygon class="st0" points="502.1 843.2 502.1 930.6 464.3 908.8 426.4 886.9 426.4 799.5 464.3 821.3 502.1 843.2"/>
  <polygon points="653.6 712 653.6 799.5 615.7 821.3 577.9 843.2 577.9 755.8 615.7 733.9 653.6 712"/>
  <polygon points="577.9 755.8 577.9 843.2 540 865.1 539.6 864.8 539.6 777.8 540 777.6 577.9 755.8"/>
  <polygon points="539.6 864.8 539.6 952.3 502.1 930.6 502.1 843.2 539.6 864.8"/>
  <polygon points="729.3 668.3 729.3 755.8 691.4 777.6 653.6 799.5 653.6 712 691.4 690.2 729.3 668.3"/>
  <polygon points="805 624.6 805 712 767.2 733.9 729.3 755.8 729.3 668.3 767.2 646.5 805 624.6"/>
  <polygon points="880.8 580.9 880.8 668.3 842.9 690.2 842.9 690.2 805 712 805 624.6 880.8 580.9"/>
  <polygon class="st0" points="426.4 799.5 426.4 886.9 388.5 865.1 350.7 843.2 350.7 755.8 388.5 777.6 426.4 799.5"/>
  <polygon points="577.9 668.3 577.9 755.8 540 777.6 539.6 777.4 539.6 690.4 540 690.2 577.9 668.3"/>
  <polygon points="653.6 537.1 653.6 624.6 615.7 646.5 577.9 668.3 577.9 580.9 615.7 559 653.6 537.1"/>
  <polygon points="274.9 799.5 274.9 886.9 237.1 865.1 199.2 843.2 199.2 755.8 237.1 777.6 274.9 799.5"/>
  <polygon class="st0" points="350.7 843.2 350.7 930.6 312.8 908.8 274.9 886.9 274.9 799.5 312.8 821.3 350.7 843.2"/>
  <polygon points="729.3 493.4 729.3 580.9 691.4 602.7 653.6 624.6 653.6 537.1 691.4 515.3 729.3 493.4"/>
  <polygon points="805 449.7 805 537.1 767.2 559 729.3 580.9 729.3 493.4 767.2 471.6 805 449.7"/>
  <polygon points="880.8 406 880.8 493.4 842.9 515.3 805 537.1 805 449.7 842.9 427.8 880.8 406"/>
  <polygon class="st0" points="956.5 362.2 956.5 449.7 918.6 471.6 880.8 493.4 880.8 406 918.6 384.1 956.5 362.2"/>
  <polygon class="st0" points="956.5 318.5 956.5 362.2 918.6 384.1 880.8 406 880.8 362.2 956.5 318.5"/>
  <polygon points="577.9 580.9 577.9 668.3 540 690.2 539.6 689.9 539.6 603 540 602.7 577.9 580.9"/>
  <polygon class="st0" points="426.4 624.6 426.4 712 388.5 690.2 350.7 668.3 350.7 580.9 388.5 602.7 426.4 624.6"/>
  <polygon class="st0" points="199.2 755.8 199.2 843.2 161.3 821.3 123.5 799.5 123.5 712 161.3 733.9 199.2 755.8"/>
  <polygon class="st0" points="918.6 296.7 842.9 340.4 805 318.5 767.2 296.7 805 274.8 842.9 253 880.8 274.8 918.6 296.7"/>
  <polygon class="st0" points="350.7 580.9 350.7 668.3 312.8 646.5 274.9 624.6 274.9 537.1 312.8 559 350.7 580.9"/>
  <polygon class="st0" points="540 427.8 502.1 449.7 464.3 471.6 426.4 449.7 388.5 427.8 426.4 406 464.3 384.1 502.1 406 540 427.8"/>
  <polygon class="st0" points="199.2 580.9 199.2 668.3 161.3 646.5 123.5 624.6 123.5 537.1 161.3 559 161.4 559 199.2 580.9"/>
  <polygon class="st0" points="199.2 668.3 199.2 755.8 161.3 733.9 123.5 712 123.5 624.6 161.3 646.5 199.2 668.3"/>
  <polygon points="274.9 624.6 274.9 712 237.1 690.2 199.2 668.3 199.2 580.9 237.1 602.7 274.9 624.6"/>
  <polygon points="274.9 712 274.9 799.5 237.1 777.6 199.2 755.8 199.2 668.3 237.1 690.2 274.9 712"/>
  <polygon points="388.5 340.4 350.7 362.3 312.8 384.1 274.9 362.3 237.1 340.4 274.9 318.5 312.8 296.7 350.7 318.5 388.5 340.4"/>
  <polygon class="st0" points="350.7 668.3 350.7 755.8 312.8 733.9 274.9 712 274.9 624.6 312.8 646.5 350.7 668.3"/>
  <polygon class="st0" points="426.4 712 426.4 799.5 388.5 777.6 350.7 755.8 350.7 668.3 388.5 690.2 426.4 712"/>
  <polygon class="st0" points="767.2 209.2 729.3 231.1 691.4 253 653.6 231.1 615.7 209.2 653.6 187.4 691.5 165.5 729.3 187.4 767.2 209.2"/>
  <polygon class="st0" points="540 253 464.3 296.7 426.4 274.8 388.5 253 426.4 231.1 464.3 209.2 502.1 231.1 540 253"/>
  <polygon class="st0" points="615.7 121.8 577.9 143.6 540 165.5 502.1 143.6 464.3 121.8 540 78.1 615.7 121.8"/>
  <polygon points="388.5 253 350.7 274.8 312.8 296.7 274.9 274.8 237.1 253 274.9 231.1 312.8 209.2 312.8 209.2 350.7 231.1 388.5 253"/>
  <polygon class="st0" points="312.8 296.7 274.9 318.5 237.1 340.4 199.2 318.5 161.3 296.7 237.1 253 274.9 274.8 312.8 296.7"/>
  <polygon class="st0" points="237.1 340.4 199.2 362.2 199.2 362.3 123.5 318.5 161.3 296.7 199.2 318.5 237.1 340.4"/>
  <polygon class="st0" points="502.1 537.4 502.1 580.9 464.3 559 426.4 537.1 426.4 493.6 501.9 537.2 502.1 537.4"/>
  <polygon class="st0" points="426.4 493.6 426.4 537.1 388.5 515.3 350.7 493.4 350.7 449.8 426.2 493.5 426.4 493.6"/>
  <polygon class="st0" points="350.7 449.8 350.7 493.4 274.9 449.7 274.9 406.1 350.6 449.8 350.7 449.8"/>
  <polygon class="st0" points="274.9 406.1 274.9 449.7 237.1 427.8 199.2 406 199.2 362.3 274.9 406 274.9 406.1"/>
  <polygon class="st0" points="199.2 362.3 199.2 406 161.3 384.1 123.5 362.2 123.5 318.5 199.2 362.3 199.2 362.3"/>
  <polygon points="274.9 449.7 274.9 537.1 237.1 515.3 199.2 493.4 199.2 406 237.1 427.8 274.9 449.7"/>
  <polygon points="350.7 493.4 350.7 580.9 312.8 559 274.9 537.1 274.9 449.7 350.7 493.4"/>
  <polygon points="426.4 537.1 426.4 624.6 388.5 602.7 350.7 580.9 350.7 493.4 388.5 515.3 426.4 537.1"/>
  <polygon class="st0" points="502.1 580.9 502.1 668.3 464.3 646.5 426.4 624.6 426.4 537.1 464.3 559 502.1 580.9"/>
  <polygon points="274.9 537.1 274.9 624.6 237.1 602.7 199.2 580.9 199.2 493.4 237.1 515.3 274.9 537.1"/>
  <polygon points="199.2 406 199.2 493.4 161.3 471.6 123.5 449.7 123.5 362.2 161.3 384.1 199.2 406"/>
  <polygon class="st0" points="199.2 493.4 199.2 580.9 161.4 559 161.3 559 123.5 537.1 123.5 449.7 161.3 471.6 199.2 493.4"/>
  <polygon points="539.6 602.5 539.6 689.9 502.1 668.3 502.1 580.9 539.6 602.5 539.6 602.5 539.6 602.5"/>
  <polygon class="st0" points="691.5 165.5 653.6 187.4 615.7 209.2 615.7 209.2 577.9 187.4 540 165.5 577.9 143.6 615.7 121.8 653.6 143.6 691.5 165.5"/>
  <polygon class="st0" points="615.7 209.2 577.9 231.1 540 253 502.1 231.1 464.3 209.2 502.1 187.4 540 165.5 577.9 187.4 615.7 209.2"/>
  <polygon points="540 165.5 502.1 187.4 464.3 209.2 426.4 187.4 388.5 165.5 426.4 143.6 464.3 121.8 502.1 143.6 540 165.5"/>
  <polygon class="st0" points="653.4 493.3 577.9 536.9 577.7 537 540 515.3 615.7 471.6 653.4 493.3"/>
  <polygon class="st0" points="539.6 559 539.6 602.5 502.1 580.9 502.1 537.4 539.6 559"/>
  <polygon class="st0" points="577.7 537 539.6 559 502.1 537.4 502.1 537.1 540 515.3 577.7 537"/>
  <polygon class="st0" points="577.9 537.1 577.9 580.9 540 602.7 539.6 602.5 539.6 602.5 539.6 602.5 539.6 559 577.7 537 577.9 537.1"/>
</svg>